<?xml version="1.0" encoding="UTF-8"?>
<!DOCTYPE svg PUBLIC "-//W3C//DTD SVG 1.1//EN" "http://www.w3.org/Graphics/SVG/1.1/DTD/svg11.dtd">
<!-- Creator: CorelDRAW 2018 (64-Bit) -->
<svg xmlns="http://www.w3.org/2000/svg" xml:space="preserve" width="56.7901mm" height="40.2915mm" version="1.1" style="shape-rendering:geometricPrecision; text-rendering:geometricPrecision; image-rendering:optimizeQuality; fill-rule:evenodd; clip-rule:evenodd"
viewBox="0 0 4463.14 3166.51"
 xmlns:xlink="http://www.w3.org/1999/xlink">
 <defs>
  <style type="text/css">
   <![CDATA[
    .fil0 {fill:#FFCC33}
   ]]>
  </style>
 </defs>
 <g id="Слой_x0020_1">
  <metadata id="CorelCorpID_0Corel-Layer"/>
  <g id="_776097920">
   <path class="fil0" d="M2439.47 831.64c0,1104.36 1386.07,868.42 1386.07,1469.23 -57.18,337.61 -412.91,281.71 -526.7,277.22 -263.9,0 -419.84,-200.79 -526.71,-360.38 -327.76,189.23 -374.76,211.49 -498.98,277.22 97.35,417.85 668.62,665.31 1192.02,665.31 519.1,0 997.97,-319.47 997.97,-831.64 0,-464.79 -133.75,-705.85 -591.05,-933.63 -575.54,-286.68 -853.94,-297.22 -795.02,-646.49 0,-172.92 326.4,-299 560.3,-116.76l160.46 172.21 471.26 -277.21c-69.03,-296.3 -438.67,-526.71 -803.91,-526.71 -296.73,0 -547.1,1.22 -797.94,255.48 -126.4,128.13 -227.75,333.03 -227.75,576.16z"/>
   <path class="fil0" d="M1275.18 2273.15c0,113.12 -89.45,304.94 -292.06,304.94 -202.61,0 -246.85,8.01 -456.41,-304.94l-526.7 304.94c474.81,897.35 1912.77,754.17 1912.77,-332.66l0 -2217.71 -637.59 0 0 2245.43z"/>
  </g>
 </g>
</svg>
